<svg width="22" height="22" viewBox="0 0 22 22" fill="none" xmlns="http://www.w3.org/2000/svg">
<path d="M8.375 2.25C8.29765 2.25 8.22346 2.28073 8.16876 2.33543C8.11406 2.39013 8.08333 2.46431 8.08333 2.54167V7.20833C8.08333 7.4404 7.99115 7.66296 7.82705 7.82705C7.66296 7.99115 7.4404 8.08333 7.20833 8.08333H2.54167C2.46431 8.08333 2.39013 8.11406 2.33543 8.16876C2.28073 8.22346 2.25 8.29765 2.25 8.375V13.625C2.25 13.786 2.38067 13.9167 2.54167 13.9167H7.20833C7.4404 13.9167 7.66296 14.0089 7.82705 14.1729C7.99115 14.337 8.08333 14.5596 8.08333 14.7917V19.4583C8.08333 19.6193 8.214 19.75 8.375 19.75H13.625C13.7024 19.75 13.7765 19.7193 13.8312 19.6646C13.8859 19.6099 13.9167 19.5357 13.9167 19.4583V14.7917C13.9167 14.5596 14.0089 14.337 14.1729 14.1729C14.337 14.0089 14.5596 13.9167 14.7917 13.9167H19.4583C19.5357 13.9167 19.6099 13.8859 19.6646 13.8312C19.7193 13.7765 19.75 13.7024 19.75 13.625V8.375C19.75 8.29765 19.7193 8.22346 19.6646 8.16876C19.6099 8.11406 19.5357 8.08333 19.4583 8.08333H14.7917C14.5596 8.08333 14.337 7.99115 14.1729 7.82705C14.0089 7.66296 13.9167 7.4404 13.9167 7.20833V2.54167C13.9167 2.46431 13.8859 2.39013 13.8312 2.33543C13.7765 2.28073 13.7024 2.25 13.625 2.25H8.375ZM6.33333 2.54167C6.33333 1.41467 7.248 0.5 8.375 0.5H13.625C14.752 0.5 15.6667 1.41467 15.6667 2.54167V6.33333H19.4583C20.5853 6.33333 21.5 7.248 21.5 8.375V13.625C21.5 14.1665 21.2849 14.6858 20.902 15.0687C20.5191 15.4516 19.9998 15.6667 19.4583 15.6667H15.6667V19.4583C15.6667 19.9998 15.4516 20.5191 15.0687 20.902C14.6858 21.2849 14.1665 21.5 13.625 21.5H8.375C7.83352 21.5 7.31421 21.2849 6.93132 20.902C6.54844 20.5191 6.33333 19.9998 6.33333 19.4583V15.6667H2.54167C2.00018 15.6667 1.48088 15.4516 1.09799 15.0687C0.715104 14.6858 0.5 14.1665 0.5 13.625V8.375C0.5 7.248 1.41467 6.33333 2.54167 6.33333H6.33333V2.54167Z" fill="#B0B0B0"/>
</svg>
