<svg width="20" height="21" viewBox="0 0 20 21" fill="none" xmlns="http://www.w3.org/2000/svg">
<path d="M10.3857 2.81322L10.3856 2.81317C10.2774 2.72075 10.1408 2.67033 10 2.67033C9.85921 2.67033 9.72264 2.72075 9.61441 2.81317L9.61436 2.81321L2.86441 8.5726C2.7976 8.62966 2.7437 8.70094 2.70661 8.78157C2.66954 8.86218 2.65019 8.95011 2.65 9.03923V18.4526H6.475V13.2768C6.475 12.8342 6.64832 12.4092 6.95752 12.0956C7.26678 11.7818 7.68669 11.6052 8.125 11.6052H11.875C12.3133 11.6052 12.7332 11.7818 13.0425 12.0956C13.3517 12.4092 13.525 12.8342 13.525 13.2768V18.4526H17.35V9.03904C17.35 8.94969 17.3307 8.86147 17.2936 8.78061C17.2566 8.69977 17.2026 8.62831 17.1357 8.57113L10.3857 2.81322ZM10.3857 2.81322L17.1356 8.57108L10.3857 2.81322ZM8.45519 1.42089L8.45516 1.42092L1.70519 7.17804C1.43725 7.40645 1.22196 7.69141 1.07428 8.01286C0.926613 8.33431 0.850088 8.68454 0.85 9.03901V9.03904V18.6034C0.85 19.046 1.02332 19.471 1.33252 19.7846C1.64178 20.0984 2.06169 20.275 2.5 20.275H6.625C7.06331 20.275 7.48322 20.0984 7.79248 19.7846C8.10168 19.471 8.275 19.046 8.275 18.6034V13.4276H11.725V18.6034C11.725 19.046 11.8983 19.471 12.2075 19.7846C12.5168 20.0984 12.9367 20.275 13.375 20.275H17.5C17.9383 20.275 18.3582 20.0984 18.6675 19.7846C18.9767 19.471 19.15 19.046 19.15 18.6034V9.0398V9.03977C19.1499 8.6853 19.0734 8.33507 18.9257 8.01363C18.778 7.69217 18.5628 7.40721 18.2948 7.1788L11.5448 1.42092L11.5448 1.42089C11.1124 1.05232 10.5654 0.85 10 0.85C9.43457 0.85 8.88756 1.05232 8.45519 1.42089Z" fill="#B0B0B0" stroke="#B0B0B0" stroke-width="0.3"/>
</svg>
