<svg width="20" height="20" viewBox="0 0 20 20" fill="none" xmlns="http://www.w3.org/2000/svg">
<path d="M10 20C4.47768 20 0 15.5223 0 10C0 4.47768 4.47768 0 10 0C15.5223 0 20 4.47768 20 10C20 15.5223 15.5223 20 10 20ZM13.692 6.20089L12.2188 6.20759L10 8.85268L7.78348 6.20982L6.30804 6.20312C6.20982 6.20312 6.12946 6.28125 6.12946 6.3817C6.12946 6.42411 6.14509 6.46428 6.17188 6.49777L9.07589 9.95759L6.17188 13.4152C6.1449 13.4479 6.12994 13.4889 6.12946 13.5312C6.12946 13.6295 6.20982 13.7098 6.30804 13.7098L7.78348 13.7031L10 11.058L12.2165 13.7009L13.6897 13.7076C13.7879 13.7076 13.8683 13.6295 13.8683 13.529C13.8683 13.4866 13.8527 13.4464 13.8259 13.4129L10.9263 9.95536L13.8281 6.49554C13.8549 6.46205 13.8705 6.42187 13.8705 6.37946C13.8705 6.28125 13.7902 6.20089 13.692 6.20089Z" fill="#F36D33"/>
</svg>
