<svg width="28" height="22" viewBox="0 0 28 22" fill="none" xmlns="http://www.w3.org/2000/svg">
<path d="M24 1H4C2.61929 1 1.5 2.11929 1.5 3.5V18.5C1.5 19.8807 2.61929 21 4 21H24C25.3807 21 26.5 19.8807 26.5 18.5V3.5C26.5 2.11929 25.3807 1 24 1Z" stroke="black" stroke-width="2" stroke-linecap="round" stroke-linejoin="round"/>
<path d="M14 8.52C13.674 8.12479 13.265 7.80615 12.8021 7.58667C12.3391 7.36719 11.8336 7.25225 11.3213 7.25C9.35 7.25 7.75 8.92875 7.75 11C7.75 13.0712 9.35 14.75 11.3213 14.75C12.3888 14.75 13.3462 14.2588 14 13.48V8.52ZM20.25 11C20.25 13.0712 18.65 14.75 16.6787 14.75C14.7062 14.75 13.1075 13.0712 13.1075 11C13.1075 8.92875 14.7062 7.25 16.6787 7.25C18.65 7.25 20.25 8.92875 20.25 11Z" stroke="black" stroke-width="2" stroke-linecap="round" stroke-linejoin="round"/>
</svg>
