<svg width="18" height="18" viewBox="0 0 18 18" fill="none" xmlns="http://www.w3.org/2000/svg">
<path d="M2.25 3.9375V12.9375C2.25 13.2359 2.36853 13.522 2.5795 13.733C2.79048 13.944 3.07663 14.0625 3.375 14.0625H14.625C14.9234 14.0625 15.2095 13.944 15.4205 13.733C15.6315 13.522 15.75 13.2359 15.75 12.9375V3.9375H2.25ZM2.25 2.8125H15.75C16.0484 2.8125 16.3345 2.93103 16.5455 3.142C16.7565 3.35298 16.875 3.63913 16.875 3.9375V12.9375C16.875 13.5342 16.6379 14.1065 16.216 14.5285C15.794 14.9504 15.2217 15.1875 14.625 15.1875H3.375C2.77826 15.1875 2.20597 14.9504 1.78401 14.5285C1.36205 14.1065 1.125 13.5342 1.125 12.9375V3.9375C1.125 3.63913 1.24353 3.35298 1.4545 3.142C1.66548 2.93103 1.95163 2.8125 2.25 2.8125Z" fill="black"/>
<path d="M15.8906 3.9375L11.5403 8.91C11.2235 9.27213 10.8329 9.56235 10.3948 9.76119C9.9567 9.96003 9.48113 10.0629 9 10.0629C8.51887 10.0629 8.0433 9.96003 7.60519 9.76119C7.16707 9.56235 6.77653 9.27213 6.45975 8.91L2.10938 3.9375H15.8906ZM3.6045 3.9375L7.30575 8.16863C7.51693 8.41011 7.77732 8.60364 8.06943 8.73624C8.36155 8.86884 8.67864 8.93744 8.99944 8.93744C9.32024 8.93744 9.63733 8.86884 9.92944 8.73624C10.2216 8.60364 10.4819 8.41011 10.6931 8.16863L14.3955 3.9375H3.6045Z" fill="black"/>
</svg>
