<svg width="32" height="35" viewBox="0 0 32 35" fill="none" xmlns="http://www.w3.org/2000/svg">
<path d="M22.0792 5.89725C21.8089 5.89725 21.5496 6.02277 21.3585 6.2462C21.1673 6.46962 21.0599 6.77266 21.0599 7.08863C21.0599 7.4046 21.1673 7.70764 21.3585 7.93106C21.5496 8.15449 21.8089 8.28001 22.0792 8.28001C23.1148 8.28001 24.3118 9.45519 24.4399 11.0945C24.4644 11.4092 24.5949 11.6997 24.8027 11.9019C25.0104 12.1042 25.2784 12.2017 25.5476 12.173C25.8169 12.1443 26.0653 11.9917 26.2384 11.7489C26.4114 11.5061 26.4948 11.1929 26.4703 10.8782C26.255 8.13323 24.2719 5.89725 22.0792 5.89725ZM13.6069 2.06958C11.7086 0.0070641 9.42213 -0.293164 7.42515 0.2177C5.46241 0.719033 3.69864 2.0143 2.64022 3.32482C1.33553 4.93843 0.109942 7.00666 0.00638299 9.99464V10.0023C-0.0376501 11.4729 0.126251 13.645 1.12841 15.2586L1.24094 15.4416C2.24799 17.0714 2.84326 18.036 3.13844 19.0024L3.14089 19.0101C3.47848 20.0909 3.48744 21.1669 3.49968 22.6938L3.50294 23.1036C3.52088 25.2195 4.03704 28.6164 5.42245 31.0964C6.09111 32.2954 7.00846 33.3581 8.23568 33.8909L8.28298 33.9118L8.3319 33.9261C9.30797 34.2273 10.2318 34.1644 10.9796 33.5182C11.6776 32.9149 12.0168 31.9723 12.2133 31.0954C12.4131 30.1985 12.5093 29.1482 12.5852 28.1084C12.6072 27.8034 12.6276 27.5003 12.648 27.1963C12.7001 26.4243 12.7515 25.6503 12.8322 24.8688C12.8883 24.2997 12.9653 23.7336 13.063 23.1723C13.3484 21.5777 13.6762 20.6542 13.9918 20.1061C14.2707 19.62 14.552 19.4075 14.8643 19.276C15.7898 19.0024 16.3761 19.1435 16.774 19.4075C17.2013 19.6906 17.5723 20.2195 17.8806 21.0421C18.5141 22.7348 18.6944 25.1261 18.8452 27.2859V27.2887C19.0001 29.437 19.3867 31.3976 20.1108 32.6604C20.4834 33.3104 21.011 33.889 21.731 34.092C22.4665 34.2998 23.1882 34.0567 23.8275 33.5773L23.8283 33.5764C26.1686 31.8179 27.5197 28.0607 27.8891 23.2733C28.0441 21.2451 28.2471 20.1709 28.5659 19.2283C28.8244 18.4658 29.1587 17.7777 29.6692 16.7293L29.6708 16.7274C29.8266 16.4062 30.0003 16.0507 30.1927 15.6494C30.7178 14.5591 31.5634 12.5919 31.658 10.2958C31.7559 7.91497 31.0391 5.29012 28.6222 3.02459C26.3145 0.839124 24.17 0.0442357 22.2561 0.163374C20.3578 0.281559 18.8379 1.28899 17.7525 2.3822L17.7273 2.40793L17.7036 2.43462C16.6379 3.6565 16.1372 3.88811 15.8012 3.87095C15.4261 3.85189 14.8333 3.51068 13.6363 2.10294L13.6224 2.08578L13.6069 2.06958ZM4.12185 4.9613C4.91444 3.98056 6.31861 2.93977 7.86058 2.54518C9.3626 2.16108 10.9103 2.40222 12.2052 3.79947C13.3598 5.15573 14.459 6.18795 15.7123 6.2518C17.0015 6.31852 18.0689 5.35017 19.1062 4.16451C19.9583 3.31434 21.055 2.62429 22.3646 2.54232C23.6693 2.46131 25.3344 2.97694 27.3403 4.87743L27.3452 4.88219C29.2395 6.65687 29.6888 8.54021 29.6211 10.1815C29.551 11.9066 28.9011 13.4735 28.4151 14.48L28.4134 14.4838C28.2504 14.8269 28.0938 15.1481 27.9454 15.4512C27.4137 16.5415 26.9864 17.4193 26.6709 18.3515C26.2485 19.5981 26.0226 20.9306 25.8579 23.0598C25.5089 27.5947 24.2678 30.414 22.7267 31.571C22.4005 31.816 22.2488 31.7864 22.2097 31.7759C22.155 31.7607 22.0066 31.6873 21.8044 31.3347C21.3779 30.5912 21.024 29.1358 20.8764 27.0905L20.8699 26.999C20.728 24.9631 20.534 22.1858 19.7479 20.0861C19.3394 18.9958 18.727 17.9626 17.7803 17.3345C16.8099 16.6921 15.643 16.5758 14.3106 16.9819L14.2747 16.9933L14.2397 17.0076C13.5139 17.2964 12.8502 17.8196 12.299 18.7775C11.7746 19.6896 11.3775 20.9534 11.0677 22.6852C10.9576 23.3137 10.8708 23.9475 10.8075 24.5848C10.7227 25.4197 10.6657 26.2679 10.6118 27.0571C10.5931 27.3497 10.5735 27.6347 10.5539 27.9063C10.4781 28.9481 10.3925 29.8144 10.2408 30.4931C10.0843 31.1926 9.9016 31.4862 9.76787 31.6015C9.68633 31.6721 9.47758 31.8045 8.90026 31.6368C8.22345 31.327 7.63227 30.6951 7.12915 29.7944C6.02587 27.8186 5.557 24.9164 5.54151 23.0789V23.077L5.53825 22.6166C5.53009 21.1736 5.52031 19.683 5.05714 18.1971C4.66003 16.9008 3.89679 15.6666 2.99493 14.2102L2.78047 13.8633L2.77884 13.8604C2.18358 12.9026 2.00418 11.3986 2.04251 10.0871C2.11916 7.91211 2.98596 6.36713 4.12185 4.9613ZM14.8643 19.276L14.826 19.2874L14.8977 19.2626C14.8866 19.267 14.8754 19.2714 14.8643 19.276Z" fill="#6A3E98"/>
</svg>
