<svg width="55" height="55" viewBox="0 0 55 55" fill="none" xmlns="http://www.w3.org/2000/svg">
<g filter="url(#filter0_d_145_32)">
<circle cx="27.5" cy="22.5" r="17.5" fill="white"/>
</g>
<path d="M19.9595 21.144V18.0387C19.9595 17.8073 20.0514 17.5855 20.215 17.4219C20.3785 17.2583 20.6004 17.1664 20.8318 17.1664H35.1372C35.3685 17.1664 35.5904 17.2583 35.754 17.4219C35.9176 17.5855 36.0095 17.8073 36.0095 18.0387V28.0699C36.0095 28.3013 35.9176 28.5231 35.754 28.6867C35.5904 28.8503 35.3685 28.9422 35.1372 28.9422H20.8318C20.6004 28.9422 20.3785 28.8503 20.215 28.6867C20.0514 28.5231 19.9595 28.3013 19.9595 28.0699V24.9602" fill="#6A3E98"/>
<path d="M19.9595 21.144V18.0387C19.9595 17.8073 20.0514 17.5855 20.215 17.4219C20.3785 17.2583 20.6004 17.1664 20.8318 17.1664H35.1372C35.3685 17.1664 35.5904 17.2583 35.754 17.4219C35.9176 17.5855 36.0095 17.8073 36.0095 18.0387V28.0699C36.0095 28.3013 35.9176 28.5231 35.754 28.6867C35.5904 28.8503 35.3685 28.9422 35.1372 28.9422H20.8318C20.6004 28.9422 20.3785 28.8503 20.215 28.6867C20.0514 28.5231 19.9595 28.3013 19.9595 28.0699V24.9602" stroke="white" stroke-linecap="round" stroke-linejoin="round"/>
<path d="M19.4361 21.1443H24.4518C24.6831 21.1443 24.905 21.2362 25.0686 21.3998C25.2322 21.5634 25.3241 21.7852 25.3241 22.0166V24.0882C25.3241 24.3196 25.2322 24.5415 25.0686 24.705C24.905 24.8686 24.6831 24.9605 24.4518 24.9605H19.4361C19.3205 24.9605 19.2095 24.9146 19.1277 24.8328C19.046 24.751 19 24.6401 19 24.5244V21.5804C19 21.4648 19.046 21.3538 19.1277 21.272C19.2095 21.1902 19.3205 21.1443 19.4361 21.1443Z" fill="#6A3E98" stroke="white" stroke-linecap="round" stroke-linejoin="round"/>
<path d="M23.3571 23.9267C23.8389 23.9267 24.2294 23.5362 24.2294 23.0544C24.2294 22.5727 23.8389 22.1821 23.3571 22.1821C22.8754 22.1821 22.4849 22.5727 22.4849 23.0544C22.4849 23.5362 22.8754 23.9267 23.3571 23.9267Z" stroke="white" stroke-linecap="round" stroke-linejoin="round"/>
<path d="M33.6627 17.1664L22.7896 14L21.8694 17.1664" fill="#6A3E98"/>
<path d="M33.6627 17.1664L22.7896 14L21.8694 17.1664" stroke="white" stroke-linecap="round" stroke-linejoin="round"/>
<defs>
<filter id="filter0_d_145_32" x="0" y="0" width="55" height="55" filterUnits="userSpaceOnUse" color-interpolation-filters="sRGB">
<feFlood flood-opacity="0" result="BackgroundImageFix"/>
<feColorMatrix in="SourceAlpha" type="matrix" values="0 0 0 0 0 0 0 0 0 0 0 0 0 0 0 0 0 0 127 0" result="hardAlpha"/>
<feOffset dy="5"/>
<feGaussianBlur stdDeviation="5"/>
<feComposite in2="hardAlpha" operator="out"/>
<feColorMatrix type="matrix" values="0 0 0 0 0 0 0 0 0 0 0 0 0 0 0 0 0 0 0.25 0"/>
<feBlend mode="normal" in2="BackgroundImageFix" result="effect1_dropShadow_145_32"/>
<feBlend mode="normal" in="SourceGraphic" in2="effect1_dropShadow_145_32" result="shape"/>
</filter>
</defs>
</svg>
