<svg width="32" height="31" viewBox="0 0 32 31" fill="none" xmlns="http://www.w3.org/2000/svg">
<path d="M14.3716 7.84977C14.7951 7.84977 15.2013 7.6844 15.5007 7.39004C15.8002 7.09567 15.9684 6.69643 15.9684 6.28013C15.9684 5.86384 15.8002 5.4646 15.5007 5.17023C15.2013 4.87587 14.7951 4.71049 14.3716 4.71049C13.9481 4.71049 13.5419 4.87587 13.2425 5.17023C12.943 5.4646 12.7748 5.86384 12.7748 6.28013C12.7748 6.69643 12.943 7.09567 13.2425 7.39004C13.5419 7.6844 13.9481 7.84977 14.3716 7.84977ZM15.4463 0.35082C15.1359 0.123056 14.7589 0 14.3716 0C13.9843 0 13.6073 0.123056 13.2969 0.35082L0.56688 9.69175C-0.51099 10.4821 0.0582849 12.1655 1.40203 12.1655H2.39527V21.5873C1.67851 21.9215 1.07295 22.4487 0.648945 23.1078C0.224943 23.7669 -8.81433e-05 24.5307 2.58992e-08 25.3104V28.0573C2.58992e-08 28.5988 0.447116 29.0383 0.998027 29.0383H13.471C13.16 28.4205 12.9498 27.7584 12.8482 27.0763H1.99605V25.3104C1.99605 24.738 2.22738 24.1891 2.63915 23.7843C3.05092 23.3796 3.60939 23.1522 4.19172 23.1522H13.471C13.9183 22.2633 14.568 21.4878 15.3696 20.8856V12.1647H18.7629V19.6331C18.8958 19.6247 19.029 19.6205 19.1621 19.6205H20.759V12.1647H24.3519V19.6205H26.3479V12.1647H27.3412C28.6857 12.1647 29.2542 10.4813 28.1771 9.69096L15.4463 0.35082ZM13.3736 21.1901H9.98028V12.1647H13.3736V21.1901ZM7.98422 21.1901H4.39132V12.1647H7.98422V21.1901ZM3.20487 10.2027L14.3716 2.00993L25.5375 10.2034L3.20487 10.2027ZM19.3617 21.1901C18.7012 21.1819 18.0455 21.3027 17.4328 21.5455C16.8201 21.7883 16.2625 22.1483 15.7924 22.6046C15.3224 23.0608 14.9491 23.6043 14.6944 24.2034C14.4397 24.8026 14.3085 25.4455 14.3085 26.0949C14.3085 26.7442 14.4397 27.3872 14.6944 27.9863C14.9491 28.5855 15.3224 29.1289 15.7924 29.5852C16.2625 30.0415 16.8201 30.4014 17.4328 30.6442C18.0455 30.887 18.7012 31.0078 19.3617 30.9996H20.5594C20.8241 30.9996 21.0779 30.8963 21.2651 30.7123C21.4522 30.5283 21.5574 30.2788 21.5574 30.0186C21.5574 29.7584 21.4522 29.5089 21.2651 29.3249C21.0779 29.1409 20.8241 29.0376 20.5594 29.0376H19.3617C18.5677 29.0376 17.8061 28.7275 17.2446 28.1756C16.6831 27.6236 16.3677 26.875 16.3677 26.0945C16.3677 25.3139 16.6831 24.5653 17.2446 24.0134C17.8061 23.4615 18.5677 23.1514 19.3617 23.1514H20.5594C20.8241 23.1514 21.0779 23.0481 21.2651 22.8641C21.4522 22.6801 21.5574 22.4306 21.5574 22.1704C21.5574 21.9102 21.4522 21.6607 21.2651 21.4767C21.0779 21.2927 20.8241 21.1894 20.5594 21.1894L19.3617 21.1901ZM26.9467 21.1901C27.6073 21.1819 28.263 21.3027 28.8757 21.5455C29.4884 21.7883 30.046 22.1483 30.516 22.6046C30.9861 23.0608 31.3593 23.6043 31.6141 24.2034C31.8688 24.8026 32 25.4455 32 26.0949C32 26.7442 31.8688 27.3872 31.6141 27.9863C31.3593 28.5855 30.9861 29.1289 30.516 29.5852C30.046 30.0415 29.4884 30.4014 28.8757 30.6442C28.263 30.887 27.6073 31.0078 26.9467 30.9996H25.7491C25.4844 30.9996 25.2306 30.8963 25.0434 30.7123C24.8562 30.5283 24.7511 30.2788 24.7511 30.0186C24.7511 29.7584 24.8562 29.5089 25.0434 29.3249C25.2306 29.1409 25.4844 29.0376 25.7491 29.0376H26.9467C27.7408 29.0376 28.5024 28.7275 29.0639 28.1756C29.6254 27.6236 29.9408 26.875 29.9408 26.0945C29.9408 25.3139 29.6254 24.5653 29.0639 24.0134C28.5024 23.4615 27.7408 23.1514 26.9467 23.1514H25.7491C25.4844 23.1514 25.2306 23.0481 25.0434 22.8641C24.8562 22.6801 24.7511 22.4306 24.7511 22.1704C24.7511 21.9102 24.8562 21.6607 25.0434 21.4767C25.2306 21.2927 25.4844 21.1894 25.7491 21.1894L26.9467 21.1901ZM18.3637 26.0953C18.3637 25.553 18.8108 25.1142 19.3617 25.1142H26.9467C27.2114 25.1142 27.4653 25.2176 27.6525 25.4016C27.8396 25.5856 27.9448 25.8351 27.9448 26.0953C27.9448 26.3555 27.8396 26.605 27.6525 26.789C27.4653 26.9729 27.2114 27.0763 26.9467 27.0763H19.3617C18.8108 27.0763 18.3637 26.6368 18.3637 26.0953Z" fill="black"/>
</svg>
