<svg width="148" height="148" viewBox="0 0 148 148" fill="none" xmlns="http://www.w3.org/2000/svg">
<path d="M138.75 13.8597L101.718 13.8598V4.64221C101.718 2.0869 99.6479 0.0172119 97.0926 0.0172119C94.5373 0.0172119 92.4676 2.0869 92.4676 4.64221V13.8575H55.4676V4.64221C55.4676 2.0869 53.3979 0.0172119 50.8426 0.0172119C48.2873 0.0172119 46.2176 2.0869 46.2176 4.64221V13.8575H9.25C4.14169 13.8575 0 17.9992 0 23.1075V138.733C0 143.841 4.14169 147.983 9.25 147.983H138.75C143.858 147.983 148 143.841 148 138.733V23.1075C148 18.0014 143.858 13.8597 138.75 13.8597ZM138.75 138.733H9.25V23.1075H46.2176V27.7672C46.2176 30.3224 48.2873 32.3922 50.8426 32.3922C53.3979 32.3922 55.4676 30.3224 55.4676 27.7672V23.1098H92.4676V27.7695C92.4676 30.3248 94.5373 32.3945 97.0926 32.3945C99.6479 32.3945 101.718 30.3248 101.718 27.7695V23.1098H138.75V138.733ZM106.375 73.9847H115.625C118.178 73.9847 120.25 71.9127 120.25 69.3597V60.1097C120.25 57.5567 118.178 55.4847 115.625 55.4847H106.375C103.822 55.4847 101.75 57.5567 101.75 60.1097V69.3597C101.75 71.9127 103.822 73.9847 106.375 73.9847ZM106.375 110.982H115.625C118.178 110.982 120.25 108.913 120.25 106.357V97.1074C120.25 94.5544 118.178 92.4824 115.625 92.4824H106.375C103.822 92.4824 101.75 94.5544 101.75 97.1074V106.357C101.75 108.915 103.822 110.982 106.375 110.982ZM78.625 92.4824H69.375C66.822 92.4824 64.75 94.5544 64.75 97.1074V106.357C64.75 108.913 66.822 110.982 69.375 110.982H78.625C81.178 110.982 83.25 108.913 83.25 106.357V97.1074C83.25 94.5567 81.178 92.4824 78.625 92.4824ZM78.625 55.4847H69.375C66.822 55.4847 64.75 57.5567 64.75 60.1097V69.3597C64.75 71.9127 66.822 73.9847 69.375 73.9847H78.625C81.178 73.9847 83.25 71.9127 83.25 69.3597V60.1097C83.25 57.5544 81.178 55.4847 78.625 55.4847ZM41.625 55.4847H32.375C29.822 55.4847 27.75 57.5567 27.75 60.1097V69.3597C27.75 71.9127 29.822 73.9847 32.375 73.9847H41.625C44.178 73.9847 46.25 71.9127 46.25 69.3597V60.1097C46.25 57.5544 44.178 55.4847 41.625 55.4847ZM41.625 92.4824H32.375C29.822 92.4824 27.75 94.5544 27.75 97.1074V106.357C27.75 108.913 29.822 110.982 32.375 110.982H41.625C44.178 110.982 46.25 108.913 46.25 106.357V97.1074C46.25 94.5567 44.178 92.4824 41.625 92.4824Z" fill="#D9D9D9"/>
</svg>
