<svg width="194" height="199" viewBox="0 0 194 199" fill="none" xmlns="http://www.w3.org/2000/svg">
<path fill-rule="evenodd" clip-rule="evenodd" d="M57.3888 22.8712L57.6852 21.5779C58.2511 19.1744 59.1779 15.6393 61.091 12.1581C63.0418 8.61222 66.0649 5.01783 70.8072 2.65211C75.5332 0.297166 81.4556 -0.581223 88.7791 0.388777C96.8624 1.46655 113.099 4.13944 127.444 11.436C141.87 18.7757 155.386 31.4018 155.386 52.4293C155.386 63.2933 151.182 74.9494 147.108 82.5478C145.152 86.2014 142.83 89.6934 140.502 91.5742C139.968 92.0053 139.208 92.5442 138.265 92.9214C135.678 101.423 130.529 108.918 123.521 114.381C116.513 119.845 107.989 123.011 99.1132 123.446C90.2377 123.881 81.4444 121.565 73.9355 116.813C66.4266 112.061 60.5687 105.106 57.1625 96.8984L57.0332 96.9199L55.1201 94.5973L59.2803 91.17L55.1201 94.5973L55.1147 94.5866L55.1039 94.5758L55.077 94.5381L54.9854 94.4303C54.5242 93.8563 54.0803 93.2686 53.6543 92.6681C52.4907 91.0542 51.394 89.393 50.3671 87.6888C47.8343 83.4962 44.7788 77.5253 42.8227 70.5575C40.8719 63.5897 39.9773 55.4201 42.0251 46.9919C44.019 38.79 48.7235 30.7174 57.2433 23.5071L57.3888 22.8712ZM66.4422 90.976C68.7794 97.6972 73.2675 103.46 79.2115 107.373C85.1555 111.285 92.2237 113.128 99.3213 112.617C106.419 112.106 113.15 109.268 118.472 104.545C123.794 99.8207 127.41 93.4739 128.759 86.4871L129.368 86.6918C129.347 86.3869 129.336 86.0814 129.336 85.7757C129.336 76.8571 128.096 70.6329 126.943 66.7529C126.718 65.9977 126.468 65.2501 126.194 64.5112L125.973 64.5219H125.758C121.728 64.6089 117.7 64.3021 113.73 63.6058C104.477 62.0431 91.9478 58.1415 77.193 49.1043C76.8697 49.8264 76.5463 50.6402 76.223 51.5455C75.1668 54.5363 74.2992 58.0876 73.5501 61.8383C72.8873 65.1417 72.343 68.4666 71.8257 71.5814L71.6263 72.8101C71.0712 76.1512 70.5162 79.433 69.8695 81.8095C68.7378 85.9374 67.5846 88.8689 66.4422 90.9706V90.976ZM58.8977 80.9365C56.4637 76.7585 54.5525 72.2972 53.207 67.6529C51.5958 61.9083 51.003 55.6896 52.5011 49.5408C53.9561 43.5592 57.475 37.2703 64.7123 31.3102C66.0164 30.4264 66.6092 29.2409 66.7709 28.9229V28.9176C67.0539 28.3349 67.2812 27.7269 67.4499 27.1015C67.6223 26.4872 67.8109 25.6465 67.9888 24.8921L68.1774 24.046C68.6893 21.8743 69.3522 19.5086 70.5377 17.3476C71.6909 15.2567 73.2699 13.4676 75.6194 12.2982C77.9798 11.1181 81.6334 10.3097 87.3564 11.0749C95.1865 12.115 109.914 14.6101 122.557 21.0444C135.113 27.4302 144.608 37.0979 144.608 52.4293C144.608 59.4887 142.237 67.5182 139.381 73.8501C138.842 69.7222 138.066 66.3488 137.268 63.6759C136.712 61.7655 136.019 59.8979 135.194 58.0876C134.882 57.4167 134.541 56.7604 134.17 56.1207L134.078 55.9752L134.046 55.9213L134.03 55.8943L134.019 55.8782L129.492 58.7882L134.019 55.8782L132.025 52.7849L128.457 53.5017L128.382 53.5178L127.859 53.5879C127.057 53.6772 126.252 53.7312 125.445 53.7496C122.123 53.8138 118.802 53.5539 115.53 52.9736C106.837 51.5078 94.0656 47.5146 78.551 37.1841L74.7788 34.6675L71.6586 37.9547C69.0881 40.6599 67.3421 44.3513 66.0649 47.9457C64.7608 51.6371 63.7747 55.7596 62.9825 59.7151C62.3257 63.0812 61.7293 66.4587 61.1934 69.8462L60.9886 71.0533C60.412 74.5614 59.9432 77.2397 59.4689 78.9749C59.292 79.6326 59.1016 80.2866 58.8977 80.9365ZM133.701 83.2106L133.722 83.1998L133.701 83.2106ZM133.722 83.1998L133.701 83.2106L133.717 83.1998H133.722Z" fill="#D9D9D9"/>
<path fill-rule="evenodd" clip-rule="evenodd" d="M64.2032 128.111C63.0608 125.837 61.6543 123.029 59.2778 123.573C30.1562 130.202 0 149.338 0 169.686V198.948H194V169.686C194 153.66 175.29 138.382 153.114 129.377L153.088 129.323C153.063 129.275 153.038 129.226 153.012 129.178L152.834 129.264C146.944 126.893 140.812 124.953 134.722 123.573C132.012 122.954 129.209 126.683 127.986 129.016H64.6667C64.5158 128.736 64.3649 128.423 64.2032 128.111ZM136.894 135.224C139.249 135.876 141.593 136.609 143.905 137.417C143.97 139.26 143.829 141.438 143.528 143.658C143.22 145.957 142.73 148.227 142.062 150.448H134.722C133.722 150.448 132.741 150.727 131.89 151.254C131.039 151.78 130.352 152.533 129.905 153.428L124.516 164.206C124.141 164.953 123.945 165.778 123.944 166.614V177.392C123.944 178.821 124.512 180.192 125.523 181.203C126.533 182.213 127.904 182.781 129.333 182.781H140.111V172.003H134.722V167.886L138.053 161.226H152.947L156.278 167.886V172.003H150.889V182.781H161.667C163.096 182.781 164.467 182.213 165.477 181.203C166.488 180.192 167.056 178.821 167.056 177.392V166.614C167.055 165.778 166.859 164.953 166.484 164.206L161.095 153.428C160.648 152.533 159.961 151.78 159.11 151.254C158.259 150.727 157.278 150.448 156.278 150.448H153.228C153.894 147.596 154.34 144.697 154.564 141.777C159.818 144.261 164.701 147.112 168.931 150.195C179.288 157.75 183.222 164.82 183.222 169.686V188.17H10.7778V169.686C10.7778 164.82 14.7117 157.75 25.0691 150.195C30.2748 146.395 36.4882 142.957 43.1488 140.112C43.3338 144.406 44.023 148.664 45.202 152.797L45.2451 152.948C42.0234 154.986 39.6256 158.097 38.4752 161.732C37.3248 165.366 37.4958 169.291 38.958 172.811C40.4202 176.332 43.0795 179.223 46.4663 180.973C49.853 182.723 53.7493 183.22 57.4669 182.376C61.1846 181.532 64.4845 179.402 66.7837 176.361C69.0829 173.32 70.2335 169.564 70.0324 165.758C69.8313 161.951 68.2913 158.337 65.6845 155.556C63.0776 152.774 59.5717 151.003 55.7858 150.556C55.0972 148.301 54.5926 145.994 54.2769 143.658C53.9769 141.568 53.8525 139.458 53.9051 137.347C53.9207 136.944 53.9476 136.542 53.9859 136.14C54.6326 135.941 55.2792 135.747 55.9259 135.564L58.1623 139.799H134.491L136.894 135.23V135.224ZM53.8889 172.09C56.7881 172.09 59.2778 169.718 59.2778 166.62C59.2778 163.527 56.7881 161.15 53.8889 161.15C50.9897 161.15 48.5 163.521 48.5 166.62C48.5 169.713 50.9897 172.09 53.8889 172.09Z" fill="#D9D9D9"/>
</svg>
