<svg width="128" height="152" viewBox="0 0 128 152" fill="none" xmlns="http://www.w3.org/2000/svg">
<path fill-rule="evenodd" clip-rule="evenodd" d="M25.8945 12.125C25.8945 9.04186 27.2312 6.08499 29.6106 3.90488C31.99 1.72477 35.2171 0.5 38.582 0.5H72.4154C75.7803 0.5 79.0074 1.72477 81.3868 3.90488C83.7662 6.08499 85.1029 9.04186 85.1029 12.125H97.7904C101.155 12.125 104.382 13.3498 106.762 15.5299C109.141 17.71 110.478 20.6669 110.478 23.75V81.875H102.02V23.75C102.02 22.7223 101.574 21.7367 100.781 21.01C99.9877 20.2833 98.912 19.875 97.7904 19.875H85.1029C85.1029 22.9581 83.7662 25.915 81.3868 28.0951C79.0074 30.2752 75.7803 31.5 72.4154 31.5H38.582C35.2171 31.5 31.99 30.2752 29.6106 28.0951C27.2312 25.915 25.8945 22.9581 25.8945 19.875H13.207C12.0854 19.875 11.0097 20.2833 10.2166 21.01C9.42344 21.7367 8.97786 22.7223 8.97786 23.75V132.25C8.97786 133.278 9.42344 134.263 10.2166 134.99C11.0097 135.717 12.0854 136.125 13.207 136.125H63.957V143.875H13.207C9.8421 143.875 6.61498 142.65 4.23561 140.47C1.85624 138.29 0.519531 135.333 0.519531 132.25V23.75C0.519531 20.6669 1.85624 17.71 4.23561 15.5299C6.61498 13.3498 9.8421 12.125 13.207 12.125H25.8945ZM38.582 8.25C37.4604 8.25 36.3847 8.65826 35.5916 9.38496C34.7984 10.1117 34.3529 11.0973 34.3529 12.125V19.875C34.3529 20.9027 34.7984 21.8883 35.5916 22.615C36.3847 23.3417 37.4604 23.75 38.582 23.75H72.4154C73.537 23.75 74.6127 23.3417 75.4058 22.615C76.199 21.8883 76.6445 20.9027 76.6445 19.875V12.125C76.6445 11.0973 76.199 10.1117 75.4058 9.38496C74.6127 8.65826 73.537 8.25 72.4154 8.25H38.582ZM51.2695 47V58.625H38.582V66.375H51.2695V78H59.7279V66.375H72.4154V58.625H59.7279V47H51.2695ZM72.4154 89.625C71.2937 89.625 70.218 90.0333 69.4249 90.76C68.6318 91.4867 68.1862 92.4723 68.1862 93.5V119.807C68.1864 124.273 69.3897 128.669 71.6893 132.606C73.9889 136.543 77.3137 139.898 81.3685 142.375L95.4432 150.978C96.1382 151.403 96.9549 151.629 97.7904 151.629C98.6258 151.629 99.4426 151.403 100.138 150.978L114.212 142.375C118.266 139.899 121.591 136.544 123.89 132.607C126.19 128.671 127.394 124.276 127.395 119.811V93.5C127.395 92.4723 126.949 91.4867 126.156 90.76C125.363 90.0333 124.287 89.625 123.165 89.625H72.4154ZM113.468 111.74L96.5512 127.24C95.7581 127.966 94.6826 128.374 93.5612 128.374C92.4398 128.374 91.3643 127.966 90.5712 127.24L82.1128 119.49L88.0929 114.01L93.5612 119.021L107.488 106.26L113.468 111.74Z" fill="#D9D9D9"/>
</svg>
