<svg width="136" height="136" viewBox="0 0 136 136" fill="none" xmlns="http://www.w3.org/2000/svg">
<path fill-rule="evenodd" clip-rule="evenodd" d="M124.667 7.55556H11.3333C10.3314 7.55556 9.37051 7.95357 8.66204 8.66204C7.95357 9.37051 7.55556 10.3314 7.55556 11.3333V124.667C7.55556 125.669 7.95357 126.629 8.66204 127.338C9.37051 128.046 10.3314 128.444 11.3333 128.444H124.667C125.669 128.444 126.629 128.046 127.338 127.338C128.046 126.629 128.444 125.669 128.444 124.667V11.3333C128.444 10.3314 128.046 9.37051 127.338 8.66204C126.629 7.95357 125.669 7.55556 124.667 7.55556ZM11.3333 0C8.32755 0 5.44487 1.19404 3.31946 3.31946C1.19404 5.44487 0 8.32755 0 11.3333V124.667C0 127.672 1.19404 130.555 3.31946 132.681C5.44487 134.806 8.32755 136 11.3333 136H124.667C127.672 136 130.555 134.806 132.681 132.681C134.806 130.555 136 127.672 136 124.667V11.3333C136 8.32755 134.806 5.44487 132.681 3.31946C130.555 1.19404 127.672 0 124.667 0H11.3333Z" fill="#D9D9D9"/>
<path d="M49.112 52.8889C49.112 55.8947 47.9179 58.7773 45.7925 60.9028C43.6671 63.0282 40.7844 64.2222 37.7786 64.2222C34.7729 64.2222 31.8902 63.0282 29.7648 60.9028C27.6394 58.7773 26.4453 55.8947 26.4453 52.8889C26.4453 49.8831 27.6394 47.0004 29.7648 44.875C31.8902 42.7496 34.7729 41.5555 37.7786 41.5555C40.7844 41.5555 43.6671 42.7496 45.7925 44.875C47.9179 47.0004 49.112 49.8831 49.112 52.8889Z" fill="#D9D9D9"/>
<path fill-rule="evenodd" clip-rule="evenodd" d="M23.634 80.24C22.8407 81.0371 22.6669 81.634 22.6669 82.0798V94.4444H15.1113V82.0798C15.1113 79.1029 16.5091 76.6964 18.2733 74.9171C20.0073 73.1756 22.24 71.8684 24.4576 70.8976C28.87 68.9709 34.106 68 37.778 68C41.4462 68 46.686 68.9709 51.0984 70.8976C53.316 71.8684 55.5487 73.1756 57.2827 74.9171C59.0507 76.6964 60.4447 79.1029 60.4447 82.0798V94.4444H52.8891V82.0798C52.8891 81.634 52.7115 81.0371 51.922 80.2438C51.0984 79.4127 49.7913 78.574 48.0724 77.8222C44.6196 76.3111 40.4111 75.5556 37.778 75.5556C35.1449 75.5556 30.9402 76.3111 27.4835 77.8222C25.7647 78.5702 24.4613 79.4089 23.634 80.24ZM84.0784 80.24C83.2851 81.0371 83.1113 81.634 83.1113 82.0798V94.4444H75.5558V82.0798C75.5558 79.1029 76.9536 76.6964 78.7178 74.9171C80.4518 73.1756 82.6844 71.8684 84.902 70.8976C89.3144 68.9709 94.5542 68 98.2224 68C101.891 68 107.13 68.9709 111.543 70.8976C113.76 71.8684 115.993 73.1756 117.727 74.9171C119.495 76.6964 120.889 79.1029 120.889 82.0798V94.4444H113.334V82.0798C113.334 81.634 113.156 81.0371 112.366 80.2438C111.543 79.4127 110.236 78.574 108.517 77.8222C105.064 76.3111 100.856 75.5556 98.2224 75.5556C95.5893 75.5556 91.3847 76.3111 87.928 77.8222C86.2091 78.5702 84.9058 79.4089 84.0784 80.24Z" fill="#D9D9D9"/>
<path d="M109.555 52.8889C109.555 55.8947 108.361 58.7774 106.235 60.9028C104.11 63.0282 101.227 64.2222 98.2216 64.2222C95.2158 64.2222 92.3331 63.0282 90.2077 60.9028C88.0823 58.7774 86.8882 55.8947 86.8882 52.8889C86.8882 49.8831 88.0823 47.0004 90.2077 44.875C92.3331 42.7496 95.2158 41.5556 98.2216 41.5556C101.227 41.5556 104.11 42.7496 106.235 44.875C108.361 47.0004 109.555 49.8831 109.555 52.8889ZM79.3327 45.3333C79.3327 48.3391 78.1386 51.2218 76.0132 53.3472C73.8878 55.4726 71.0051 56.6667 67.9993 56.6667C64.9936 56.6667 62.1109 55.4726 59.9855 53.3472C57.8601 51.2218 56.666 48.3391 56.666 45.3333C56.666 42.3275 57.8601 39.4449 59.9855 37.3195C62.1109 35.194 64.9936 34 67.9993 34C71.0051 34 73.8878 35.194 76.0132 37.3195C78.1386 39.4449 79.3327 42.3275 79.3327 45.3333Z" fill="#D9D9D9"/>
<path fill-rule="evenodd" clip-rule="evenodd" d="M63.0766 71.7589C62.0074 71.8647 61.641 72.1065 61.3728 72.4049L55.7363 67.3729C57.7197 65.1516 60.1941 64.4489 62.3399 64.2373C63.6394 64.1127 65.2488 64.158 66.571 64.192C67.1074 64.2071 67.5986 64.2222 67.999 64.2222C68.3994 64.2222 68.8905 64.2071 69.4308 64.192C70.7492 64.1542 72.3585 64.1165 73.6543 64.2411C75.8077 64.4489 78.2783 65.1516 80.2617 67.3729L74.6252 72.4049C74.3608 72.1065 73.9905 71.8647 72.9214 71.7627C72.2253 71.7071 71.5265 71.6919 70.8286 71.7173L70.0654 71.7362C69.4232 71.7551 68.6941 71.7778 67.999 71.7778C67.3039 71.7778 66.5748 71.7551 65.9325 71.74L65.1694 71.7173C64.4716 71.6907 63.7728 71.7046 63.0766 71.7589Z" fill="#D9D9D9"/>
</svg>
