<svg width="112" height="142" viewBox="0 0 112 142" fill="none" xmlns="http://www.w3.org/2000/svg">
<path d="M25.4545 81.1429H66.1818V91.2857H25.4545V81.1429ZM25.4545 55.7857H86.5455V65.9286H25.4545V55.7857ZM25.4545 106.5H50.9091V116.643H25.4545V106.5Z" fill="#D9D9D9"/>
<path d="M101.818 15.2143H86.5455V10.1429C86.5455 7.4528 85.4727 4.87293 83.5633 2.97077C81.6538 1.06862 79.064 0 76.3636 0H35.6364C32.936 0 30.3462 1.06862 28.4367 2.97077C26.5273 4.87293 25.4545 7.4528 25.4545 10.1429V15.2143H10.1818C7.48143 15.2143 4.89165 16.2829 2.98218 18.1851C1.07272 20.0872 0 22.6671 0 25.3571V131.857C0 134.547 1.07272 137.127 2.98218 139.029C4.89165 140.931 7.48143 142 10.1818 142H101.818C104.519 142 107.108 140.931 109.018 139.029C110.927 137.127 112 134.547 112 131.857V25.3571C112 22.6671 110.927 20.0872 109.018 18.1851C107.108 16.2829 104.519 15.2143 101.818 15.2143ZM35.6364 10.1429H76.3636V30.4286H35.6364V10.1429ZM101.818 131.857H10.1818V25.3571H25.4545V40.5714H86.5455V25.3571H101.818V131.857Z" fill="#D9D9D9"/>
</svg>
