<svg width="12" height="11" viewBox="0 0 12 11" fill="none" xmlns="http://www.w3.org/2000/svg">
<path d="M10.82 8.8498C10.4986 8.56324 10.2172 8.23474 9.98333 7.87313C9.72807 7.37398 9.57508 6.82887 9.53333 6.2698V4.62313C9.53198 4.42311 9.51414 4.22355 9.48 4.02646C9.21764 3.97402 8.96549 3.87946 8.73333 3.74646C8.82183 4.03141 8.86678 4.32809 8.86667 4.62646V6.27313C8.90752 6.95514 9.09513 7.62029 9.41667 8.22313C9.6468 8.5878 9.91986 8.92353 10.23 9.22313H1.69333C2.00347 8.92353 2.27653 8.5878 2.50667 8.22313C2.8282 7.62029 3.01581 6.95514 3.05667 6.27313V4.62313C3.05491 4.23736 3.12927 3.85503 3.27548 3.49804C3.42169 3.14104 3.63689 2.81639 3.90874 2.54268C4.18059 2.26897 4.50377 2.05157 4.85976 1.90293C5.21575 1.75429 5.59756 1.67733 5.98333 1.67646C6.54792 1.67691 7.09984 1.84388 7.57 2.15646C7.51817 1.96612 7.48908 1.77031 7.48333 1.57313V1.36313C7.13529 1.19191 6.76138 1.07929 6.37667 1.02979V0.609795C6.37667 0.491774 6.32978 0.378586 6.24633 0.295132C6.16288 0.211679 6.04969 0.164795 5.93167 0.164795C5.81364 0.164795 5.70046 0.211679 5.617 0.295132C5.53355 0.378586 5.48667 0.491774 5.48667 0.609795V1.04646C4.62524 1.16798 3.83686 1.59704 3.26707 2.25444C2.69729 2.91184 2.38458 3.75317 2.38667 4.62313V6.2698C2.34492 6.82887 2.19193 7.37398 1.93667 7.87313C1.70696 8.23391 1.43006 8.56238 1.11333 8.8498C1.07778 8.88103 1.04928 8.91948 1.02974 8.96259C1.0102 9.00569 1.00006 9.05247 1 9.0998V9.55313C1 9.64153 1.03512 9.72632 1.09763 9.78883C1.16014 9.85134 1.24493 9.88646 1.33333 9.88646H10.6C10.6884 9.88646 10.7732 9.85134 10.8357 9.78883C10.8982 9.72632 10.9333 9.64153 10.9333 9.55313V9.0998C10.9333 9.05247 10.9231 9.00569 10.9036 8.96259C10.8841 8.91948 10.8556 8.88103 10.82 8.8498Z" fill="#181818" stroke="black" stroke-width="0.3"/>
</svg>
