<svg width="10" height="7" viewBox="0 0 10 7" fill="none" xmlns="http://www.w3.org/2000/svg">
<path d="M9.04114 0.179669C8.84325 -0.0250447 8.53973 -0.023134 8.37483 0.0311463L4.93909 3.7389C3.95652 2.62228 1.93366 0.342511 1.7028 0.156407C1.47193 -0.0296968 1.0844 0.0323377 0.919489 0.086618C0.727098 0.272722 0.301089 0.714718 0.136183 0.993873C-0.0287237 1.27303 -0.0235796 1.75775 0.0451317 1.96712C1.35751 3.48696 4.15578 6.59559 4.48559 6.85614C4.81541 7.11668 5.2689 6.9647 5.45442 6.85614C6.7668 5.39057 9.64196 2.32071 9.88932 1.96712C10.1367 1.61352 9.90002 1.29629 9.84506 1.15671C9.65954 0.91633 9.23902 0.384383 9.04114 0.179669Z" fill="#F36D33"/>
</svg>
