<svg width="55" height="55" viewBox="0 0 55 55" fill="none" xmlns="http://www.w3.org/2000/svg">
<g filter="url(#filter0_d_142_30)">
<circle cx="27.5" cy="22.5" r="17.5" fill="white"/>
</g>
<path d="M22.9739 18.611C23.099 18.611 23.219 18.5613 23.3074 18.4728C23.3959 18.3844 23.4456 18.2644 23.4456 18.1393V15.1523C23.4456 15.0272 23.4953 14.9073 23.5837 14.8188C23.6722 14.7304 23.7921 14.6807 23.9172 14.6807H30.8345C30.8965 14.6807 30.9578 14.6929 31.015 14.7166C31.0722 14.7403 31.1242 14.775 31.168 14.8188C31.2118 14.8626 31.2466 14.9146 31.2703 14.9718C31.294 15.029 31.3062 15.0904 31.3062 15.1523V18.1393C31.3062 18.2644 31.3559 18.3844 31.4443 18.4728C31.5328 18.5613 31.6527 18.611 31.7778 18.611H33.1927C33.2547 18.611 33.316 18.6232 33.3732 18.6469C33.4304 18.6706 33.4824 18.7053 33.5262 18.7491C33.57 18.7929 33.6048 18.8449 33.6285 18.9021C33.6522 18.9593 33.6644 19.0207 33.6644 19.0826V28.3581C33.6644 28.42 33.6522 28.4814 33.6285 28.5386C33.6048 28.5958 33.57 28.6478 33.5262 28.6916C33.4824 28.7354 33.4304 28.7701 33.3732 28.7938C33.316 28.8175 33.2547 28.8297 33.1927 28.8297H21.559C21.434 28.8297 21.314 28.78 21.2255 28.6916C21.1371 28.6031 21.0874 28.4832 21.0874 28.3581V19.0826C21.0874 18.9575 21.1371 18.8375 21.2255 18.7491C21.314 18.6607 21.434 18.611 21.559 18.611H22.9739Z" fill="#6A3E98" stroke="#6A3E98" stroke-width="1.5"/>
<path d="M25.7975 18.6108H27.3696M27.3696 18.6108H28.9418M27.3696 18.6108V17.0387M27.3696 18.6108V20.1829M30.5202 25.6932L30.528 25.6846M30.5202 22.549L30.528 22.5403M27.3759 22.549L27.3838 22.5403M24.2317 22.549L24.2396 22.5403M24.2317 25.6932L24.2396 25.6846M27.3759 25.6932L27.3838 25.6846" stroke="white" stroke-linecap="round" stroke-linejoin="round"/>
<defs>
<filter id="filter0_d_142_30" x="0" y="0" width="55" height="55" filterUnits="userSpaceOnUse" color-interpolation-filters="sRGB">
<feFlood flood-opacity="0" result="BackgroundImageFix"/>
<feColorMatrix in="SourceAlpha" type="matrix" values="0 0 0 0 0 0 0 0 0 0 0 0 0 0 0 0 0 0 127 0" result="hardAlpha"/>
<feOffset dy="5"/>
<feGaussianBlur stdDeviation="5"/>
<feComposite in2="hardAlpha" operator="out"/>
<feColorMatrix type="matrix" values="0 0 0 0 0 0 0 0 0 0 0 0 0 0 0 0 0 0 0.25 0"/>
<feBlend mode="normal" in2="BackgroundImageFix" result="effect1_dropShadow_142_30"/>
<feBlend mode="normal" in="SourceGraphic" in2="effect1_dropShadow_142_30" result="shape"/>
</filter>
</defs>
</svg>
