<svg width="36" height="41" viewBox="0 0 36 41" fill="none" xmlns="http://www.w3.org/2000/svg">
<path fill-rule="evenodd" clip-rule="evenodd" d="M17.0002 0H19.0002V14.5C19.0002 15.898 19.5642 16.442 20.0042 16.699C20.0532 16.727 20.1022 16.753 20.1522 16.777L20.1482 16.402V16.4C20.1102 12.872 20.0372 6 25.4752 6C32.9252 6 38.2482 32.006 35.0552 34.66C31.8612 37.314 25.4752 35.721 22.2822 32.537C19.7042 29.966 19.9272 23.958 20.0872 19.646V19.644C20.0972 19.382 20.1072 19.126 20.1152 18.877C19.7228 18.7807 19.346 18.6292 18.9962 18.427C18.6189 18.2077 18.282 17.9253 18.0002 17.592C17.7032 17.944 17.3602 18.218 17.0042 18.426C16.6042 18.66 16.2102 18.796 15.8842 18.877L15.9132 19.645C16.0732 23.958 16.2962 29.966 13.7182 32.537C10.5252 35.722 4.13818 37.314 0.945176 34.66C-2.24782 32.007 3.07518 6 10.5252 6C15.9642 6 15.8902 12.872 15.8522 16.4C15.8509 16.5257 15.8496 16.6513 15.8482 16.777C15.8982 16.753 15.9482 16.727 15.9962 16.699C16.4362 16.442 17.0002 15.898 17.0002 14.5V0ZM25.4752 8C24.5212 8 23.9852 8.3 23.6092 8.687C23.1752 9.133 22.8132 9.851 22.5592 10.865C22.1142 12.64 22.1332 14.682 22.1492 16.329C22.1512 16.614 22.1532 16.887 22.1532 17.145C22.1532 17.905 22.1202 18.815 22.0842 19.762L22.0442 20.89C22.0002 22.266 21.9742 23.706 22.0412 25.098C22.1072 26.498 22.2642 27.783 22.5572 28.86C22.8542 29.948 23.2512 30.678 23.6942 31.12C24.9732 32.395 26.9912 33.425 29.0492 33.824C31.0842 34.219 32.7222 33.927 33.6822 33.197L33.6982 33.157C33.7902 32.9017 33.8539 32.6372 33.8882 32.368C34.0052 31.593 34.0352 30.512 33.9562 29.18C33.7992 26.53 33.2292 23.169 32.3262 19.86C31.4222 16.54 30.2172 13.4 28.8522 11.138C28.1692 10.006 27.4952 9.178 26.8702 8.653C26.2522 8.133 25.7942 8 25.4752 8ZM10.5252 8C11.4792 8 12.0152 8.3 12.3912 8.687C12.8252 9.133 13.1872 9.851 13.4412 10.865C13.8862 12.64 13.8672 14.682 13.8512 16.33C13.8492 16.615 13.8472 16.888 13.8472 17.146C13.8472 17.906 13.8802 18.816 13.9162 19.762L13.9562 20.891C14.0002 22.266 14.0262 23.706 13.9602 25.099C13.8932 26.499 13.7362 27.784 13.4432 28.859C13.1462 29.949 12.7492 30.679 12.3062 31.121C11.0272 32.396 9.00918 33.425 6.95118 33.825C4.91618 34.219 3.27818 33.927 2.31818 33.197C2.21781 32.9295 2.14869 32.6513 2.11218 32.368C1.99518 31.594 1.96518 30.513 2.04418 29.181C2.20118 26.531 2.77118 23.169 3.67418 19.861C4.57918 16.54 5.78318 13.401 7.14818 11.139C7.83118 10.006 8.50518 9.179 9.13018 8.654C9.74818 8.134 10.2062 8 10.5252 8Z" fill="#6A3E98"/>
<g clip-path="url(#clip0_107_29)">
<path d="M13.5897 25.9499C12.6054 24.7394 11.6809 24.4795 10.8165 25.1703C9.51993 26.2064 9.14754 29.818 10.191 33.0024C11.2344 36.1868 13.2633 40.5234 17.3592 40.5234C21.455 40.5234 22.4239 36.1603 24.0949 33.5225C25.7658 30.8846 26.6499 28.3396 25.012 25.1703" fill="#6A3E98"/>
<path d="M11.5247 24.7939C10.5314 23.2808 9.75359 22.107 9.19138 21.2726C8.34808 20.021 10.5045 18.4034 11.5247 19.5038C12.2048 20.2375 13.1084 21.318 14.2353 22.7453" fill="#6A3E98"/>
<path d="M13.8718 29.2288C13.5891 25.6917 13.8191 23.3885 14.5616 22.3193C15.6754 20.7156 17.7448 20.1075 19.6934 20.1075C20.8536 20.1075 21.9131 20.6017 22.872 21.59" fill="#6A3E98"/>
<path d="M29.0249 21.6299C29.3665 22.8178 28.8086 23.9031 27.0906 24.1489C25.3727 24.3947 24.0847 25.2585 23.1557 25.9852C22.2267 26.7119 20.5654 28.9168 20.2375 30.0238C19.9095 31.1308 18.0349 30.1127 17.5314 29.6708C17.0279 29.2288 16.5329 28.2612 17.5314 27.2491C18.5298 26.2371 18.3137 26.0352 18.3137 25.0088C18.3137 23.9826 23.7749 20.5878 26.8506 20.2774C27.5343 20.2375 28.6833 20.442 29.0249 21.6299Z" fill="#6A3E98"/>
<path d="M16.9535 20.5245C15.1931 18.3122 13.7737 17.0775 12.6953 16.8203L16.9535 20.5245Z" fill="#6A3E98"/>
<path d="M15.0269 18.3726L15.6046 16L15.0269 18.3726Z" fill="#6A3E98"/>
<path d="M25.8822 20.5243C25.6942 21.1686 25.6942 21.7727 25.8822 22.3365C26.0702 22.9004 26.473 23.5045 27.0905 24.1488" fill="#6A3E98"/>
</g>
<defs>
<clipPath id="clip0_107_29">
<rect width="28" height="28" fill="white" transform="translate(1 13)"/>
</clipPath>
</defs>
</svg>
