<svg width="18" height="14" viewBox="0 0 18 14" fill="none" xmlns="http://www.w3.org/2000/svg">
<path d="M17.7778 2.41111C17.7794 2.19259 17.72 1.97795 17.6061 1.79143C17.4922 1.60491 17.3285 1.45394 17.1333 1.35556C16.9484 1.25623 16.739 1.21134 16.5296 1.22609C16.3202 1.24084 16.1192 1.31462 15.95 1.43889L13.3333 3.11111V1.11111C13.3333 0.816426 13.2163 0.533811 13.0079 0.325437C12.7995 0.117063 12.5169 0 12.2222 0H2.22222C1.63285 0 1.06762 0.234126 0.650874 0.650874C0.234126 1.06762 0 1.63285 0 2.22222V11.1111C0 11.7005 0.234126 12.2657 0.650874 12.6825C1.06762 13.0992 1.63285 13.3333 2.22222 13.3333H12.2222C12.5169 13.3333 12.7995 13.2163 13.0079 13.0079C13.2163 12.7995 13.3333 12.5169 13.3333 12.2222V10.2222L15.9111 11.8889C16.0836 12.0209 16.2899 12.1014 16.5062 12.1211C16.7225 12.1408 16.9399 12.0988 17.1333 12C17.3319 11.9 17.4979 11.7455 17.612 11.5547C17.7262 11.3638 17.7836 11.1445 17.7778 10.9222V2.41111ZM16.6278 10.9833C16.5944 10.9833 16.5667 10.9833 16.5222 10.95L12.2222 8.20556V12.2222H2.22222C1.92754 12.2222 1.64492 12.1052 1.43655 11.8968C1.22817 11.6884 1.11111 11.4058 1.11111 11.1111V2.22222C1.11111 1.92754 1.22817 1.64492 1.43655 1.43655C1.64492 1.22817 1.92754 1.11111 2.22222 1.11111H12.2222V5.12778L16.5556 2.35C16.566 2.34233 16.5787 2.33819 16.5917 2.33819C16.6047 2.33819 16.6173 2.34233 16.6278 2.35C16.6399 2.35471 16.6503 2.36318 16.6573 2.37417C16.6642 2.38517 16.6675 2.39811 16.6667 2.41111V10.9222C16.6675 10.9352 16.6642 10.9482 16.6573 10.9592C16.6503 10.9702 16.6399 10.9786 16.6278 10.9833Z" fill="black"/>
</svg>
