<svg width="14" height="11" viewBox="0 0 14 11" fill="none" xmlns="http://www.w3.org/2000/svg">
<path d="M12.5455 1.00333C13.3171 1.82287 13.7314 2.74205 13.7314 4.23206C13.7314 6.85399 11.8908 9.20399 9.21417 10.3659L8.5452 9.33358C11.0435 7.98217 11.532 6.22847 11.7267 5.12276C11.3244 5.33102 10.7978 5.40368 10.2817 5.35574C8.93025 5.23064 7.865 4.12118 7.865 2.74205C7.865 2.04667 8.14123 1.37977 8.63294 0.888063C9.12465 0.396356 9.79155 0.120117 10.4869 0.120117C11.2907 0.120117 12.0593 0.487188 12.5455 1.00333ZM5.05429 1.00333C5.82588 1.82287 6.24015 2.74205 6.24015 4.23206C6.24015 6.85399 4.39955 9.20399 1.72293 10.3659L1.05397 9.33358C3.55229 7.98217 4.04072 6.22847 4.23549 5.12276C3.83321 5.33102 3.30658 5.40368 2.79043 5.35574C1.43902 5.23064 0.374512 4.12118 0.374512 2.74205C0.374512 2.04667 0.65075 1.37977 1.14246 0.888063C1.63417 0.396356 2.30106 0.120117 2.99644 0.120117C3.80025 0.120117 4.56885 0.487188 5.05503 1.00333H5.05429Z" fill="#F36D33"/>
</svg>
